# xmcd CD database file generated by Grip 3.2.0
# 
# Track frame offsets:
#       150
#       13745
#       32725
#       51798
#       71483
#       88766
#       107531
#       121202
#       129943
#       146421
#       155710
#       172993
#       182058
#       211522
#       226202
# 
# Disc length: 3225 seconds
# 
# Revision: 4
# Processed by: cddbd v1.5.1PL0 Copyright (c) Steve Scherf et al.
# Submitted via: Grip 3.2.0
# 
DISCID=be0c970f
DTITLE=Bar-J Wranglers - Leanin' on the Old Top Rail
DYEAR=1900
DGENRE=Country
TTITLE0=Leanin' on the Old Top Rail
TTITLE1=Ponies
TTITLE2=San Antonio Rose
TTITLE3=Blue Spanish Eyes
TTITLE4=Mama Don't Allow
TTITLE5=Streets of Laredo
TTITLE6=Jim, I Wore a Tie Today
TTITLE7=Ride, Cowboy, Ride
TTITLE8=Danny Boy
TTITLE9=160 Acres
TTITLE10=Dony Gal
TTITLE11=Southern Belles from Nashville, TN
TTITLE12=Rinder-cella
TTITLE13=Ride with a Smile
TTITLE14=Master's Call
EXTD=
EXTT0=
EXTT1=
EXTT2=
EXTT3=
EXTT4=
EXTT5=
EXTT6=
EXTT7=
EXTT8=
EXTT9=
EXTT10=
EXTT11=
EXTT12=
EXTT13=
EXTT14=
PLAYORDER=
